# File created by Blade
# Date/Time:  Tue Sep 30 19:07:45 2014
#---------------------------------------------------------
:version 1.10
:name HOM
:units
  mass 1.0
  length 1.000000
  angle deg
:documentation
     Acclaim Skeleton File
:root
   axis xyz
   order TX TY TZ RX RY RZ
   position 0.000000 0.000000 0.000000
   orientation 0 0 0
:bonedata
   begin
      id 1
      name Spine_dum
      direction 0.000000 1.000000 0.000000
      length 7.508948
      axis 0.0 0.0 0.0 xyz
   end
   begin
      id 2
      name LeftUpLeg_dum
      direction 1.000000 0.000000 0.000000
      length 3.000560
      axis 0.0 0.0 0.0 xyz
   end
   begin
      id 3
      name RightUpLeg_dum
      direction -1.000000 0.000000 0.000000
      length 3.000560
      axis 0.0 0.0 0.0 xyz
   end
   begin
      id 4
      name Spine
      direction 0.000000 1.000000 0.000000
      length 0.000000
      axis 0.0 0.0 0.0 xyz
      dof rx ry rz
   end
   begin
      id 5
      name Spine_dum1
      direction 0.000000 1.000000 0.000000
      length 13.861154
      axis 0.0 0.0 0.0 xyz
   end
   begin
      id 6
      name Spine_dum2
      direction 0.000000 1.000000 0.000000
      length 8.204781
      axis 0.0 0.0 0.0 xyz
   end
   begin
      id 7
      name Spine_dum3
      direction 0.000000 1.000000 0.000000
      length 8.204781
      axis 0.0 0.0 0.0 xyz
   end
   begin
      id 8
      name Head
      direction 0.000000 1.000000 0.000000
      length 4.527550
      axis 0.0 0.0 0.0 xyz
      dof rx ry rz
   end
   begin
      id 9
      name LeftShoulder
      direction 1.000000 0.000000 0.000000
      length 6.635956
      axis 0.0 0.0 -90.0 xyz
      dof rx ry rz
   end
   begin
      id 10
      name LeftArm
      direction 1.000000 0.000000 0.000000
      length 10.274218
      axis 0.0 0.0 -90.0 xyz
      dof rx ry rz
   end
   begin
      id 11
      name LeftForeArm
      direction 1.000000 0.000000 0.000000
      length 8.522147
      axis 0.0 0.0 -90.0 xyz
      dof ry rz rx
   end
   begin
      id 12
      name LeftHand
      direction 0.000000 0.000000 0.000000
      length 0.000000
      axis 0.0 0.0 -90.0 xyz
      dof rx ry rz
   end
   begin
      id 13
      name LeftHand_dum1
      direction 0.000000 0.000000 0.000000
      length 0.000000
      axis 0.0 0.0 -90.0 xyz
   end
   begin
      id 14
      name LeftHand_dum2
      direction 1.000000 0.000000 0.000000
      length 3.937000
      axis 0.0 0.0 -90.0 xyz
   end
   begin
      id 15
      name LeftHandThumb1
      direction 0.000000 0.000000 1.000000
      length 3.937000
      axis 0.0 0.0 -90.0 xyz
      dof rx rz ry
   end
   begin
      id 16
      name RightShoulder
      direction -1.000000 0.000000 0.000000
      length 6.635956
      axis 0.0 0.0 90.0 xyz
      dof rx ry rz
   end
   begin
      id 17
      name RightArm
      direction -1.000000 0.000000 0.000000
      length 10.274218
      axis 0.0 0.0 90.0 xyz
      dof rx ry rz
   end
   begin
      id 18
      name RightForeArm
      direction -1.000000 0.000000 0.000000
      length 8.522147
      axis 0.0 0.0 90.0 xyz
      dof ry rz rx
   end
   begin
      id 19
      name RightHand
      direction 0.000000 0.000000 0.000000
      length 0.000000
      axis 0.0 0.0 90.0 xyz
      dof rx ry rz
   end
   begin
      id 20
      name RightHand_dum1
      direction 0.000000 0.000000 0.000000
      length 0.000000
      axis 0.0 0.0 90.0 xyz
   end
   begin
      id 21
      name RightHand_dum2
      direction -1.000000 0.000000 0.000000
      length 3.937000
      axis 0.0 0.0 90.0 xyz
   end
   begin
      id 22
      name RightHandThumb1
      direction 0.000000 0.000000 1.000000
      length 3.937000
      axis 0.0 0.0 90.0 xyz
      dof rx rz ry
   end
   begin
      id 23
      name LeftUpLeg
      direction 0.000000 -1.000000 0.000000
      length 16.490845
      axis 0.0 0.0 0.0 xyz
      dof rx ry rz
   end
   begin
      id 24
      name LeftLeg
      direction 0.000000 -1.000000 0.000000
      length 14.556576
      axis 0.0 0.0 0.0 xyz
      dof rx ry rz
   end
   begin
      id 25
      name LeftFoot
      direction 0.000000 -0.258819 0.965926
      length 4.831116
      axis 15.0 0.0 0.0 xyz
      dof rx ry rz
   end
   begin
      id 26
      name LeftToeBase
      direction 0.000000 0.000000 1.000000
      length 2.952750
      axis 0.0 0.0 0.0 xyz
      dof rx ry rz
   end
   begin
      id 27
      name RightUpLeg
      direction 0.000000 -1.000000 0.000000
      length 16.490845
      axis 0.0 0.0 0.0 xyz
      dof rx ry rz
   end
   begin
      id 28
      name RightLeg
      direction 0.000000 -1.000000 0.000000
      length 14.556576
      axis 0.0 0.0 0.0 xyz
      dof rx ry rz
   end
   begin
      id 29
      name RightFoot
      direction 0.000000 -0.258819 0.965926
      length 4.831116
      axis 15.0 0.0 0.0 xyz
      dof rx ry rz
   end
   begin
      id 30
      name RightToeBase
      direction 0.000000 0.000000 1.000000
      length 2.952750
      axis 0.0 0.0 0.0 xyz
      dof rx ry rz
   end
:hierarchy
   begin
      root Spine_dum LeftUpLeg_dum RightUpLeg_dum
      Spine_dum Spine
      LeftUpLeg_dum LeftUpLeg
      RightUpLeg_dum RightUpLeg
      Spine Spine_dum1 Spine_dum2 Spine_dum3
      Spine_dum1 Head
      Spine_dum2 LeftShoulder
      Spine_dum3 RightShoulder
      LeftShoulder LeftArm
      LeftArm LeftForeArm
      LeftForeArm LeftHand
      LeftHand LeftHand_dum1 LeftHand_dum2
      LeftHand_dum1 LeftHandThumb1
      RightShoulder RightArm
      RightArm RightForeArm
      RightForeArm RightHand
      RightHand RightHand_dum1 RightHand_dum2
      RightHand_dum1 RightHandThumb1
      LeftUpLeg LeftLeg
      LeftLeg LeftFoot
      LeftFoot LeftToeBase
      RightUpLeg RightLeg
      RightLeg RightFoot
      RightFoot RightToeBase
   end

# File created by Blade
# Date/Time:  Thu Sep 25 19:36:54 2014
# Frame Rate: 120.000 fps
#------------------------------------------------------
:FULLY-SPECIFIED
:DEGREES
169
root -0.097581 32.824491 0.924801 16.626215 0.166503 -5.223588
Spine -6.357067 5.240331 -2.975893
Head -15.134409 -6.353064 14.343169
LeftShoulder -8.812049 18.641299 19.013215
LeftArm 23.850193 -0.033756 -56.887025
LeftForeArm 5.355578 -0.000000 17.336441
LeftHand -24.087483 -0.000000 -11.559072
LeftHandThumb1 -26.253704 0.000000 33.147579
RightShoulder -17.750599 12.123334 -26.971829
RightArm -9.834782 -4.050603 70.777763
RightForeArm -23.848245 -0.000000 17.127422
RightHand -8.434310 -0.000000 4.066413
RightHandThumb1 -24.326973 -0.000000 -32.862282
LeftUpLeg -19.686181 0.711433 -0.232788
LeftLeg 11.809704 -0.000000 -0.000000
LeftFoot -15.643301 8.524793 -9.788091
LeftToeBase 8.794273 -0.000000 -0.000000
RightUpLeg -23.170196 -6.258129 0.140758
RightLeg 16.972026 -0.000000 -0.000000
RightFoot -6.397721 -4.590896 9.152493
RightToeBase -5.118811 -0.000000 0.000000
170
root -0.077490 32.827230 0.904128 16.639505 -0.064720 -5.343133
Spine -6.246244 5.428107 -2.763630
Head -15.209046 -6.212189 14.212591
LeftShoulder -8.834426 18.695395 18.997769
LeftArm 23.776826 0.040048 -57.102682
LeftForeArm 5.312909 -0.000000 17.407405
LeftHand -24.064111 -0.000000 -11.374499
LeftHandThumb1 -26.253704 0.000000 33.147579
RightShoulder -17.688026 12.195137 -26.865961
RightArm -9.848810 -4.214110 71.020700
RightForeArm -23.880388 -0.000000 17.281919
RightHand -8.347424 -0.000000 4.176428
RightHandThumb1 -24.326973 -0.000000 -32.862282
LeftUpLeg -19.750527 0.680222 -0.158912
LeftLeg 11.890228 -0.000000 -0.000000
LeftFoot -15.726310 8.857988 -9.813268
LeftToeBase 8.748929 -0.000000 -0.000000
RightUpLeg -23.475228 -6.001165 0.135160
RightLeg 17.483938 -0.000000 -0.000000
RightFoot -6.411288 -4.483612 9.337850
RightToeBase -5.348895 -0.000000 0.000000
171
root -0.057269 32.829870 0.889138 16.623331 -0.271388 -5.468469
Spine -6.113439 5.570309 -2.530638
Head -15.252502 -6.027265 14.100533
LeftShoulder -8.907886 18.753490 18.968471
LeftArm 23.732018 0.131920 -57.310786
LeftForeArm 5.298869 -0.000000 17.437227
LeftHand -24.085878 -0.000000 -11.270803
LeftHandThumb1 -26.253704 0.000000 33.147579
RightShoulder -17.609362 12.268795 -26.754279
RightArm -9.851674 -4.398994 71.273170
RightForeArm -23.922442 -0.000000 17.434141
RightHand -8.366625 -0.000000 4.151817
RightHandThumb1 -24.326973 -0.000000 -32.862282
LeftUpLeg -19.789975 0.743517 -0.096900
LeftLeg 11.998495 -0.000000 -0.000000
LeftFoot -15.802381 9.056116 -9.809178
LeftToeBase 8.732301 -0.000000 -0.000000
RightUpLeg -23.734289 -5.813591 0.153757
RightLeg 17.982507 -0.000000 -0.000000
RightFoot -6.418245 -4.323709 9.512086
RightToeBase -5.531445 -0.000000 0.000000
172
root -0.039104 32.834182 0.875940 16.617399 -0.476195 -5.590431
Spine -6.010385 5.680739 -2.321544
Head -15.245752 -5.829470 14.042309
LeftShoulder -8.983309 18.835541 18.946842
LeftArm 23.664620 0.189307 -57.510184
LeftForeArm 5.262931 -0.000000 17.503641
LeftHand -24.140679 0.000000 -11.055091
LeftHandThumb1 -26.253704 0.000000 33.147579
RightShoulder -17.528200 12.315701 -26.584669
RightArm -9.804007 -4.589128 71.492579
RightForeArm -23.944834 -0.000000 17.598812
RightHand -8.398534 -0.000000 4.222548
RightHandThumb1 -24.326973 -0.000000 -32.862282
LeftUpLeg -19.833008 0.794341 -0.020951
LeftLeg 12.098983 -0.000000 -0.000000
LeftFoot -15.881359 9.194138 -9.938443
LeftToeBase 8.827750 -0.000000 -0.000000
RightUpLeg -23.992591 -5.619737 0.178346
RightLeg 18.474894 -0.000000 -0.000000
RightFoot -6.448070 -4.195990 9.680315
RightToeBase -5.874504 -0.000000 0.000000
173
root -0.023364 32.839407 0.862802 16.624877 -0.673220 -5.714800
Spine -5.930651 5.801727 -2.126782
Head -15.240862 -5.657624 13.990770
LeftShoulder -9.021187 18.870272 18.955202
LeftArm 23.538885 0.279887 -57.685161
LeftForeArm 5.215365 -0.000000 17.588047
LeftHand -24.151470 -0.000000 -10.963255
LeftHandThumb1 -26.253704 0.000000 33.147579
RightShoulder -17.489608 12.315919 -26.430940
RightArm -9.715246 -4.785299 71.746781
RightForeArm -23.993695 -0.000000 17.725507
RightHand -8.434838 -0.000000 4.184592
RightHandThumb1 -24.326973 -0.000000 -32.862282
LeftUpLeg -19.873180 0.899477 0.049693
LeftLeg 12.164809 -0.000000 -0.000000
LeftFoot -15.924750 9.270952 -10.051231
LeftToeBase 8.769310 -0.000000 -0.000000
RightUpLeg -24.264142 -5.423639 0.207022
RightLeg 18.991909 -0.000000 -0.000000
RightFoot -6.504812 -3.993398 9.984767
RightToeBase -6.447557 -0.000000 0.000000
174
root -0.007807 32.846309 0.850477 16.646868 -0.840636 -5.834648
Spine -5.869766 5.880535 -1.928214
Head -15.209724 -5.497852 13.947003
LeftShoulder -9.065489 18.905712 18.960093
LeftArm 23.388042 0.343350 -57.869773
LeftForeArm 5.193677 0.000000 17.669794
LeftHand -24.168431 -0.000000 -10.954732
LeftHandThumb1 -26.253704 0.000000 33.147579
RightShoulder -17.458471 12.327145 -26.282765
RightArm -9.651643 -5.006741 72.025455
RightForeArm -23.970429 -0.000000 17.844762
RightHand -8.276296 -0.000000 4.029738
RightHandThumb1 -24.326973 -0.000000 -32.862282
LeftUpLeg -19.919336 0.981783 0.126646
LeftLeg 12.213253 -0.000000 -0.000000
LeftFoot -15.957263 9.336203 -10.187173
LeftToeBase 8.803525 -0.000000 -0.000000
RightUpLeg -24.526250 -5.263957 0.237675
RightLeg 19.523076 -0.000000 -0.000000
RightFoot -6.660803 -3.835349 10.245379
RightToeBase -6.671740 -0.000000 0.000000
175
root 0.009320 32.853108 0.840751 16.675970 -0.975533 -5.927038
Spine -5.834323 5.940636 -1.755191
Head -15.168062 -5.378553 13.906343
LeftShoulder -9.096544 18.960541 18.964344
LeftArm 23.275648 0.389480 -58.035632
LeftForeArm 5.157053 -0.000000 17.705360
LeftHand -24.112611 0.000000 -10.950644
LeftHandThumb1 -26.253704 0.000000 33.147579
RightShoulder -17.465892 12.335095 -26.131878
RightArm -9.584050 -5.165502 72.286392
RightForeArm -23.924868 -0.000000 17.956863
RightHand -8.245948 0.000000 3.792022
RightHandThumb1 -24.326973 -0.000000 -32.862282
LeftUpLeg -19.959494 1.094164 0.165749
LeftLeg 12.230167 -0.000000 -0.000000
LeftFoot -15.952209 9.348345 -10.291099
LeftToeBase 8.770689 -0.000000 -0.000000
RightUpLeg -24.782462 -5.162906 0.250337
RightLeg 20.099043 -0.000000 -0.000000
RightFoot -6.840970 -3.707989 10.392924
RightToeBase -6.944250 -0.000000 0.000000
176
root 0.026248 32.859135 0.832866 16.703448 -1.090680 -5.989437
Spine -5.805141 5.973169 -1.628016
Head -15.115803 -5.234292 13.889767
LeftShoulder -9.161990 19.004468 18.968385
LeftArm 23.204322 0.453784 -58.156872
LeftForeArm 5.138068 0.000000 17.705727
LeftHand -24.077677 -0.000000 -10.920199
LeftHandThumb1 -26.253704 0.000000 33.147579
RightShoulder -17.493646 12.349797 -25.995246
RightArm -9.531569 -5.282406 72.570324
RightForeArm -23.988933 -0.000000 18.059064
RightHand -8.273993 -0.000000 3.524344
RightHandThumb1 -24.326973 -0.000000 -32.862282
LeftUpLeg -19.984701 1.234259 0.167684
LeftLeg 12.222614 -0.000000 -0.000000
LeftFoot -15.938797 9.299315 -10.414490
LeftToeBase 8.777351 -0.000000 -0.000000
RightUpLeg -25.019718 -5.012204 0.205689
RightLeg 20.747542 -0.000000 -0.000000
RightFoot -7.069789 -3.627107 10.488747
RightToeBase -7.576043 -0.000000 0.000000
177
root 0.041698 32.864661 0.827431 16.725136 -1.164200 -6.045126
Spine -5.779360 5.981970 -1.491111
Head -15.050559 -5.103537 13.857053
LeftShoulder -9.182189 19.008532 18.978447
LeftArm 23.078566 0.499219 -58.279613
LeftForeArm 5.117341 -0.000000 17.701643
LeftHand -24.026728 -0.000000 -10.889596
LeftHandThumb1 -26.253704 0.000000 33.147579
RightShoulder -17.530423 12.384578 -25.887987
RightArm -9.523183 -5.352220 72.865190
RightForeArm -24.045684 -0.000000 18.129850
RightHand -8.245868 -0.000000 3.476852
RightHandThumb1 -24.326973 -0.000000 -32.862282
LeftUpLeg -19.998010 1.383570 0.166297
LeftLeg 12.199361 -0.000000 -0.000000
LeftFoot -15.888357 9.190388 -10.535397
LeftToeBase 8.776908 -0.000000 -0.000000
RightUpLeg -25.254847 -4.974539 0.177843
RightLeg 21.525184 -0.000000 -0.000000
RightFoot -7.397338 -3.448518 10.453545
RightToeBase -7.675383 -0.000000 0.000000
178
root 0.057763 32.870666 0.822640 16.752746 -1.226609 -6.085231
Spine -5.772986 5.982398 -1.381257
Head -14.957254 -4.988742 13.854226
LeftShoulder -9.199713 19.048622 18.996386
LeftArm 22.988330 0.535652 -58.391966
LeftForeArm 5.126240 -0.000000 17.697575
LeftHand -23.998759 -0.000000 -10.895207
LeftHandThumb1 -26.253704 0.000000 33.147579
RightShoulder -17.546709 12.421797 -25.741186
RightArm -9.542514 -5.398178 73.119180
RightForeArm -24.132535 0.000000 18.211568
RightHand -8.133507 -0.000000 3.392518
RightHandThumb1 -24.326973 -0.000000 -32.862282
LeftUpLeg -19.996593 1.531623 0.150185
LeftLeg 12.135949 -0.000000 -0.000000
LeftFoot -15.854484 9.047653 -10.697847
LeftToeBase 8.980448 -0.000000 -0.000000
RightUpLeg -25.485074 -4.872347 0.100186
RightLeg 22.393410 -0.000000 -0.000000
RightFoot -7.693258 -3.362545 10.376623
RightToeBase -8.033745 -0.000000 0.000000
179
root 0.079500 32.874602 0.820877 16.766704 -1.276678 -6.080580
Spine -5.765823 5.966123 -1.306443
Head -14.865169 -4.876039 13.819873
LeftShoulder -9.194061 19.030316 19.034165
LeftArm 22.842432 0.646782 -58.485641
LeftForeArm 5.045037 -0.000000 17.691495
LeftHand -24.013454 -0.000000 -10.843975
LeftHandThumb1 -26.253704 0.000000 33.147579
RightShoulder -17.557046 12.438464 -25.613846
RightArm -9.558322 -5.495257 73.388434
RightForeArm -24.137827 -0.000000 18.281850
RightHand -8.180825 -0.000000 3.384257
RightHandThumb1 -24.326973 -0.000000 -32.862282
LeftUpLeg -19.878063 1.375856 0.166812
LeftLeg 11.868419 -0.000000 -0.000000
LeftFoot -15.784622 9.136085 -10.937795
LeftToeBase 9.039497 -0.000000 -0.000000
RightUpLeg -25.698885 -4.856392 -0.026680
RightLeg 23.381738 -0.000000 -0.000000
RightFoot -8.035927 -3.331192 10.199240
RightToeBase -8.385933 -0.000000 0.000000
